<svg xmlns="http://www.w3.org/2000/svg" width="700" height="260" viewBox="0 0 700 260"><rect width="100%" height="100%" fill="#ffffff"/><line x1="55" y1="20" x2="680" y2="20" stroke="#ece7e2" stroke-width="1"/><line x1="55" y1="63.75" x2="680" y2="63.75" stroke="#ece7e2" stroke-width="1"/><line x1="55" y1="107.5" x2="680" y2="107.5" stroke="#ece7e2" stroke-width="1"/><line x1="55" y1="151.25" x2="680" y2="151.25" stroke="#ece7e2" stroke-width="1"/><line x1="55" y1="195" x2="680" y2="195" stroke="#ece7e2" stroke-width="1"/><line x1="55" y1="195" x2="680" y2="195" stroke="#b9a79a" stroke-width="1.5"/><rect x="69.06" y="20" width="34.38" height="175" rx="6" fill="#A67C52"/><text x="86.25" y="213" text-anchor="middle" font-size="10" fill="#555">Adidas Grand Court</text><rect x="131.56" y="20" width="34.38" height="175" rx="6" fill="#A67C52"/><text x="148.75" y="213" text-anchor="middle" font-size="10" fill="#555">Converse Chuck Taylor</text><rect x="194.06" y="78.33" width="34.38" height="116.67" rx="6" fill="#A67C52"/><text x="211.25" y="213" text-anchor="middle" font-size="10" fill="#555">Nike Air Max Pulse</text><rect x="256.56" y="78.33" width="34.38" height="116.67" rx="6" fill="#A67C52"/><text x="273.75" y="213" text-anchor="middle" font-size="10" fill="#555">New Balance 574</text><rect x="319.06" y="78.33" width="34.38" height="116.67" rx="6" fill="#A67C52"/><text x="336.25" y="213" text-anchor="middle" font-size="10" fill="#555">Reebok Club C</text><rect x="381.56" y="78.33" width="34.38" height="116.67" rx="6" fill="#A67C52"/><text x="398.75" y="213" text-anchor="middle" font-size="10" fill="#555">Skechers Arch Fit</text><rect x="444.06" y="78.33" width="34.38" height="116.67" rx="6" fill="#A67C52"/><text x="461.25" y="213" text-anchor="middle" font-size="10" fill="#555">Oxford Executive</text><rect x="506.56" y="78.33" width="34.38" height="116.67" rx="6" fill="#A67C52"/><text x="523.75" y="213" text-anchor="middle" font-size="10" fill="#555">Puma Velocity Nitro</text><rect x="569.06" y="136.67" width="34.38" height="58.33" rx="6" fill="#A67C52"/><text x="586.25" y="213" text-anchor="middle" font-size="10" fill="#555">Runner Street Flex</text><rect x="631.56" y="136.67" width="34.38" height="58.33" rx="6" fill="#A67C52"/><text x="648.75" y="213" text-anchor="middle" font-size="10" fill="#555">Sandalia Comfort Plus</text></svg>