<svg xmlns="http://www.w3.org/2000/svg" width="700" height="260" viewBox="0 0 700 260"><rect width="100%" height="100%" fill="#ffffff"/><circle cx="150" cy="120" r="65" fill="none" stroke="#f0ece8" stroke-width="32"/><circle cx="150" cy="120" r="65" fill="none" stroke="#A67C52" stroke-width="32" stroke-dasharray="175.03 408.41" stroke-dashoffset="-0" transform="rotate(-90 150 120)"/><circle cx="150" cy="120" r="65" fill="none" stroke="#D6C0B3" stroke-width="32" stroke-dasharray="97.24 408.41" stroke-dashoffset="-175.03" transform="rotate(-90 150 120)"/><circle cx="150" cy="120" r="65" fill="none" stroke="#242424" stroke-width="32" stroke-dasharray="77.79 408.41" stroke-dashoffset="-272.27" transform="rotate(-90 150 120)"/><circle cx="150" cy="120" r="65" fill="none" stroke="#8a6d51" stroke-width="32" stroke-dasharray="38.9 408.41" stroke-dashoffset="-350.06" transform="rotate(-90 150 120)"/><circle cx="150" cy="120" r="65" fill="none" stroke="#C0A080" stroke-width="32" stroke-dasharray="19.45 408.41" stroke-dashoffset="-388.96" transform="rotate(-90 150 120)"/><circle cx="150" cy="120" r="65" fill="none" stroke="#A67C52" stroke-width="32" stroke-dasharray="0 408.41" stroke-dashoffset="-408.41" transform="rotate(-90 150 120)"/><circle cx="150" cy="120" r="34" fill="#ffffff"/><text x="150" y="125" text-anchor="middle" font-size="14" font-weight="bold" fill="#444">21</text><rect x="330" y="38" width="12" height="12" fill="#A67C52" rx="2"/><text x="350" y="48" font-size="11" fill="#444">Casuales (9)</text><rect x="330" y="62" width="12" height="12" fill="#D6C0B3" rx="2"/><text x="350" y="72" font-size="11" fill="#444">Deportivos (5)</text><rect x="330" y="86" width="12" height="12" fill="#242424" rx="2"/><text x="350" y="96" font-size="11" fill="#444">Urbanos (4)</text><rect x="330" y="110" width="12" height="12" fill="#8a6d51" rx="2"/><text x="350" y="120" font-size="11" fill="#444">Formales (2)</text><rect x="330" y="134" width="12" height="12" fill="#C0A080" rx="2"/><text x="350" y="144" font-size="11" fill="#444">Sandalias (1)</text><rect x="330" y="158" width="12" height="12" fill="#A67C52" rx="2"/><text x="350" y="168" font-size="11" fill="#444">Botas (0)</text></svg>